<svg width="24" height="24" viewBox="0 0 24 24" fill="none" xmlns="http://www.w3.org/2000/svg">
<path fill-rule="evenodd" clip-rule="evenodd" d="M22.8289 11.8475L12.0355 1L1.17229 11.8462C1.06072 11.9616 0.998854 12.1163 1.00002 12.2769C1.00118 12.4375 1.06528 12.5913 1.1785 12.705C1.29173 12.8187 1.44502 12.8834 1.60537 12.885C1.76571 12.8866 1.92027 12.8251 2.03577 12.7136L3.43861 11.3133V22.3874C3.43861 22.5499 3.50304 22.7057 3.61772 22.8206C3.7324 22.9355 3.88795 23 4.05014 23H9.55388C9.71607 23 9.87161 22.9355 9.9863 22.8206C10.101 22.7057 10.1654 22.5499 10.1654 22.3874V17.0329C10.1654 16.8704 10.2298 16.7146 10.3445 16.5998C10.4592 16.4849 10.6147 16.4203 10.7769 16.4203H13.223C13.3852 16.4203 13.5408 16.4849 13.6555 16.5998C13.7701 16.7146 13.8346 16.8704 13.8346 17.0329V22.3868C13.8346 22.5493 13.899 22.7051 14.0137 22.82C14.1284 22.9348 14.2839 22.9994 14.4461 22.9994H19.9498C20.112 22.9994 20.2676 22.9348 20.3823 22.82C20.4969 22.7051 20.5614 22.5493 20.5614 22.3868V11.3047L21.963 12.713C22.0782 12.8248 22.2326 12.8868 22.3929 12.8856C22.5533 12.8844 22.7067 12.8202 22.8203 12.7068C22.9338 12.5934 22.9984 12.4398 23 12.2792C23.0016 12.1186 22.9402 11.9632 22.8289 11.8475ZM19.3383 10.0747L12.0324 2.73236L4.66166 10.0918V21.7749H8.94235V17.0329C8.94235 16.5455 9.13564 16.0781 9.47969 15.7334C9.82374 15.3888 10.2904 15.1952 10.7769 15.1952H13.223C13.7096 15.1952 14.1762 15.3888 14.5203 15.7334C14.8643 16.0781 15.0576 16.5455 15.0576 17.0329V21.7742H19.3383V10.0747Z" fill="#7D8096"/>
</svg>
